<mxfile host="app.diagrams.net" modified="2021-02-27T17:11:41.471Z" agent="5.0 (Windows NT 10.0; Win64; x64) AppleWebKit/537.36 (KHTML, like Gecko) Chrome/88.0.4324.190 Safari/537.36" etag="3UTiJl97fS7VwSAyzt4p" version="14.4.3" type="github">
  <diagram id="HhEGzjA4sNENw7SxgC4M" name="Page-1">
    <mxGraphModel dx="864" dy="1876" grid="1" gridSize="10" guides="1" tooltips="1" connect="1" arrows="1" fold="1" page="1" pageScale="1" pageWidth="827" pageHeight="1169" math="0" shadow="0">
      <root>
        <mxCell id="0" />
        <mxCell id="1" parent="0" />
        <mxCell id="h3IPWH5JqxlF9HqRxVWm-3" value="" style="ellipse;html=1;shape=startState;fillColor=#000000;strokeColor=#ff0000;" vertex="1" parent="1">
          <mxGeometry x="374" y="-870" width="30" height="30" as="geometry" />
        </mxCell>
        <mxCell id="h3IPWH5JqxlF9HqRxVWm-4" value="" style="edgeStyle=orthogonalEdgeStyle;html=1;verticalAlign=bottom;endArrow=open;endSize=8;strokeColor=#ff0000;entryX=0.5;entryY=0;entryDx=0;entryDy=0;exitX=0.5;exitY=1;exitDx=0;exitDy=0;" edge="1" source="h3IPWH5JqxlF9HqRxVWm-3" parent="1" target="h3IPWH5JqxlF9HqRxVWm-5">
          <mxGeometry relative="1" as="geometry">
            <mxPoint x="389" y="-790" as="targetPoint" />
            <mxPoint x="389" y="-840" as="sourcePoint" />
          </mxGeometry>
        </mxCell>
        <mxCell id="h3IPWH5JqxlF9HqRxVWm-5" value="Входные параметры" style="swimlane;html=1;fontStyle=1;align=center;verticalAlign=middle;childLayout=stackLayout;horizontal=1;startSize=30;horizontalStack=0;resizeParent=0;resizeLast=1;container=0;fontColor=#000000;collapsible=0;rounded=1;arcSize=30;strokeColor=#ff0000;fillColor=#ffffc0;swimlaneFillColor=#ffffc0;dropTarget=0;" vertex="1" parent="1">
          <mxGeometry x="309" y="-810" width="160" height="70" as="geometry" />
        </mxCell>
        <mxCell id="h3IPWH5JqxlF9HqRxVWm-6" value="left, right: integer&lt;br&gt;M: array/list" style="text;html=1;strokeColor=none;fillColor=none;align=center;verticalAlign=middle;spacingLeft=4;spacingRight=4;whiteSpace=wrap;overflow=hidden;rotatable=0;fontColor=#000000;" vertex="1" parent="h3IPWH5JqxlF9HqRxVWm-5">
          <mxGeometry y="30" width="160" height="40" as="geometry" />
        </mxCell>
        <mxCell id="h3IPWH5JqxlF9HqRxVWm-7" value="" style="edgeStyle=orthogonalEdgeStyle;html=1;verticalAlign=bottom;endArrow=open;endSize=8;strokeColor=#ff0000;entryX=0.5;entryY=0;entryDx=0;entryDy=0;" edge="1" source="h3IPWH5JqxlF9HqRxVWm-5" parent="1" target="h3IPWH5JqxlF9HqRxVWm-11">
          <mxGeometry relative="1" as="geometry">
            <mxPoint x="389" y="-780" as="targetPoint" />
          </mxGeometry>
        </mxCell>
        <mxCell id="h3IPWH5JqxlF9HqRxVWm-11" value="left&amp;lt;right" style="rhombus;whiteSpace=wrap;html=1;fillColor=#ffffc0;strokeColor=#ff0000;" vertex="1" parent="1">
          <mxGeometry x="339" y="-700" width="100" height="60" as="geometry" />
        </mxCell>
        <mxCell id="h3IPWH5JqxlF9HqRxVWm-12" value="false" style="edgeStyle=orthogonalEdgeStyle;html=1;align=left;verticalAlign=bottom;endArrow=open;endSize=8;strokeColor=#ff0000;" edge="1" source="h3IPWH5JqxlF9HqRxVWm-11" parent="1">
          <mxGeometry x="-0.9931" relative="1" as="geometry">
            <mxPoint x="730" y="-670" as="targetPoint" />
            <Array as="points">
              <mxPoint x="721" y="-670" />
            </Array>
            <mxPoint as="offset" />
          </mxGeometry>
        </mxCell>
        <mxCell id="h3IPWH5JqxlF9HqRxVWm-13" value="true" style="edgeStyle=orthogonalEdgeStyle;html=1;align=left;verticalAlign=top;endArrow=open;endSize=8;strokeColor=#ff0000;exitX=0.5;exitY=1;exitDx=0;exitDy=0;entryX=0.5;entryY=0;entryDx=0;entryDy=0;" edge="1" source="h3IPWH5JqxlF9HqRxVWm-11" parent="1" target="h3IPWH5JqxlF9HqRxVWm-23">
          <mxGeometry x="-1" relative="1" as="geometry">
            <mxPoint x="389" y="-620" as="targetPoint" />
            <mxPoint x="330" y="-750" as="sourcePoint" />
            <Array as="points" />
          </mxGeometry>
        </mxCell>
        <mxCell id="h3IPWH5JqxlF9HqRxVWm-20" value="dec(right)" style="rounded=1;whiteSpace=wrap;html=1;arcSize=40;fontColor=#000000;fillColor=#ffffc0;strokeColor=#ff0000;" vertex="1" parent="1">
          <mxGeometry x="540" y="-567.5" width="120" height="40" as="geometry" />
        </mxCell>
        <mxCell id="h3IPWH5JqxlF9HqRxVWm-21" value="" style="edgeStyle=orthogonalEdgeStyle;html=1;verticalAlign=bottom;endArrow=open;endSize=8;strokeColor=#ff0000;" edge="1" source="h3IPWH5JqxlF9HqRxVWm-20" parent="1">
          <mxGeometry relative="1" as="geometry">
            <mxPoint x="390" y="-600" as="targetPoint" />
            <Array as="points">
              <mxPoint x="600" y="-600" />
            </Array>
          </mxGeometry>
        </mxCell>
        <mxCell id="h3IPWH5JqxlF9HqRxVWm-23" value="(M[right] &amp;gt;= Res)&lt;br&gt;and (left &amp;lt; right)" style="rhombus;whiteSpace=wrap;html=1;fillColor=#ffffc0;strokeColor=#ff0000;" vertex="1" parent="1">
          <mxGeometry x="318.25" y="-582.5" width="141.5" height="70" as="geometry" />
        </mxCell>
        <mxCell id="h3IPWH5JqxlF9HqRxVWm-24" value="false" style="edgeStyle=orthogonalEdgeStyle;html=1;align=left;verticalAlign=bottom;endArrow=open;endSize=8;strokeColor=#ff0000;exitX=0.5;exitY=1;exitDx=0;exitDy=0;entryX=0.5;entryY=0;entryDx=0;entryDy=0;" edge="1" source="h3IPWH5JqxlF9HqRxVWm-23" parent="1" target="h3IPWH5JqxlF9HqRxVWm-27">
          <mxGeometry x="-0.375" y="16" relative="1" as="geometry">
            <mxPoint x="240" y="-390" as="targetPoint" />
            <Array as="points">
              <mxPoint x="389" y="-490" />
              <mxPoint x="389" y="-490" />
            </Array>
            <mxPoint as="offset" />
          </mxGeometry>
        </mxCell>
        <mxCell id="h3IPWH5JqxlF9HqRxVWm-25" value="true" style="edgeStyle=orthogonalEdgeStyle;html=1;align=left;verticalAlign=top;endArrow=open;endSize=8;strokeColor=#ff0000;entryX=0;entryY=0.5;entryDx=0;entryDy=0;" edge="1" source="h3IPWH5JqxlF9HqRxVWm-23" parent="1" target="h3IPWH5JqxlF9HqRxVWm-20">
          <mxGeometry x="-1" relative="1" as="geometry">
            <mxPoint x="400" y="-455" as="targetPoint" />
          </mxGeometry>
        </mxCell>
        <mxCell id="h3IPWH5JqxlF9HqRxVWm-27" value="left &amp;lt;&amp;gt; right" style="rhombus;whiteSpace=wrap;html=1;fillColor=#ffffc0;strokeColor=#ff0000;" vertex="1" parent="1">
          <mxGeometry x="349" y="-470" width="80" height="40" as="geometry" />
        </mxCell>
        <mxCell id="h3IPWH5JqxlF9HqRxVWm-28" value="false" style="edgeStyle=orthogonalEdgeStyle;html=1;align=left;verticalAlign=bottom;endArrow=open;endSize=8;strokeColor=#ff0000;entryX=0.5;entryY=0;entryDx=0;entryDy=0;exitX=0.5;exitY=1;exitDx=0;exitDy=0;" edge="1" source="h3IPWH5JqxlF9HqRxVWm-27" parent="1" target="h3IPWH5JqxlF9HqRxVWm-32">
          <mxGeometry x="-0.6364" y="-29" relative="1" as="geometry">
            <mxPoint x="388" y="-316" as="targetPoint" />
            <mxPoint x="388" y="-426" as="sourcePoint" />
            <Array as="points" />
            <mxPoint as="offset" />
          </mxGeometry>
        </mxCell>
        <mxCell id="h3IPWH5JqxlF9HqRxVWm-29" value="true" style="edgeStyle=orthogonalEdgeStyle;html=1;align=left;verticalAlign=top;endArrow=open;endSize=8;strokeColor=#ff0000;entryX=0;entryY=0.5;entryDx=0;entryDy=0;" edge="1" source="h3IPWH5JqxlF9HqRxVWm-27" parent="1" target="h3IPWH5JqxlF9HqRxVWm-30">
          <mxGeometry x="-1" relative="1" as="geometry">
            <mxPoint x="170" y="-410" as="targetPoint" />
            <mxPoint as="offset" />
          </mxGeometry>
        </mxCell>
        <mxCell id="h3IPWH5JqxlF9HqRxVWm-30" value="Change(left,right);&lt;br&gt;inc(left)" style="rounded=1;whiteSpace=wrap;html=1;arcSize=40;fontColor=#000000;fillColor=#ffffc0;strokeColor=#ff0000;" vertex="1" parent="1">
          <mxGeometry x="490" y="-470" width="120" height="40" as="geometry" />
        </mxCell>
        <mxCell id="h3IPWH5JqxlF9HqRxVWm-31" value="" style="edgeStyle=orthogonalEdgeStyle;html=1;verticalAlign=bottom;endArrow=open;endSize=8;strokeColor=#ff0000;" edge="1" source="h3IPWH5JqxlF9HqRxVWm-30" parent="1">
          <mxGeometry relative="1" as="geometry">
            <mxPoint x="390" y="-390" as="targetPoint" />
            <Array as="points">
              <mxPoint x="550" y="-390" />
              <mxPoint x="390" y="-390" />
            </Array>
          </mxGeometry>
        </mxCell>
        <mxCell id="h3IPWH5JqxlF9HqRxVWm-32" value="(M[left] &amp;lt;= Res)&lt;br&gt;and (left &amp;lt; right)" style="rhombus;whiteSpace=wrap;html=1;fillColor=#ffffc0;strokeColor=#ff0000;" vertex="1" parent="1">
          <mxGeometry x="314" y="-320" width="150" height="60" as="geometry" />
        </mxCell>
        <mxCell id="h3IPWH5JqxlF9HqRxVWm-33" value="false" style="edgeStyle=orthogonalEdgeStyle;html=1;align=left;verticalAlign=bottom;endArrow=open;endSize=8;strokeColor=#ff0000;entryX=0.5;entryY=0;entryDx=0;entryDy=0;" edge="1" source="h3IPWH5JqxlF9HqRxVWm-32" parent="1" target="h3IPWH5JqxlF9HqRxVWm-38">
          <mxGeometry x="-0.6" y="-49" relative="1" as="geometry">
            <mxPoint x="389" y="-200" as="targetPoint" />
            <mxPoint as="offset" />
          </mxGeometry>
        </mxCell>
        <mxCell id="h3IPWH5JqxlF9HqRxVWm-34" value="true" style="edgeStyle=orthogonalEdgeStyle;html=1;align=left;verticalAlign=top;endArrow=open;endSize=8;strokeColor=#ff0000;entryX=0;entryY=0.5;entryDx=0;entryDy=0;" edge="1" source="h3IPWH5JqxlF9HqRxVWm-32" parent="1" target="h3IPWH5JqxlF9HqRxVWm-35">
          <mxGeometry x="-1" relative="1" as="geometry">
            <mxPoint x="196" y="-420" as="targetPoint" />
          </mxGeometry>
        </mxCell>
        <mxCell id="h3IPWH5JqxlF9HqRxVWm-35" value="inc(left)" style="rounded=1;whiteSpace=wrap;html=1;arcSize=40;fontColor=#000000;fillColor=#ffffc0;strokeColor=#ff0000;" vertex="1" parent="1">
          <mxGeometry x="540" y="-310" width="120" height="40" as="geometry" />
        </mxCell>
        <mxCell id="h3IPWH5JqxlF9HqRxVWm-36" value="" style="edgeStyle=orthogonalEdgeStyle;html=1;verticalAlign=bottom;endArrow=open;endSize=8;strokeColor=#ff0000;exitX=0.5;exitY=0;exitDx=0;exitDy=0;" edge="1" parent="1" source="h3IPWH5JqxlF9HqRxVWm-35">
          <mxGeometry relative="1" as="geometry">
            <mxPoint x="390" y="-360" as="targetPoint" />
            <mxPoint x="610" y="-557.5" as="sourcePoint" />
            <Array as="points">
              <mxPoint x="600" y="-360" />
            </Array>
          </mxGeometry>
        </mxCell>
        <mxCell id="h3IPWH5JqxlF9HqRxVWm-38" value="left &amp;lt;&amp;gt; right" style="rhombus;whiteSpace=wrap;html=1;fillColor=#ffffc0;strokeColor=#ff0000;" vertex="1" parent="1">
          <mxGeometry x="349" y="-210" width="80" height="40" as="geometry" />
        </mxCell>
        <mxCell id="h3IPWH5JqxlF9HqRxVWm-39" value="true" style="edgeStyle=orthogonalEdgeStyle;html=1;align=left;verticalAlign=bottom;endArrow=open;endSize=8;strokeColor=#ff0000;entryX=0;entryY=0.5;entryDx=0;entryDy=0;" edge="1" source="h3IPWH5JqxlF9HqRxVWm-38" parent="1" target="h3IPWH5JqxlF9HqRxVWm-41">
          <mxGeometry x="-1" relative="1" as="geometry">
            <mxPoint x="529" y="-190" as="targetPoint" />
          </mxGeometry>
        </mxCell>
        <mxCell id="h3IPWH5JqxlF9HqRxVWm-40" value="false" style="edgeStyle=orthogonalEdgeStyle;html=1;align=left;verticalAlign=top;endArrow=open;endSize=8;strokeColor=#ff0000;" edge="1" source="h3IPWH5JqxlF9HqRxVWm-38" parent="1">
          <mxGeometry x="-1" y="11" relative="1" as="geometry">
            <mxPoint x="389" y="-110" as="targetPoint" />
            <mxPoint as="offset" />
          </mxGeometry>
        </mxCell>
        <mxCell id="h3IPWH5JqxlF9HqRxVWm-41" value="Change(left,right);&lt;br&gt;inc(left)" style="rounded=1;whiteSpace=wrap;html=1;arcSize=40;fontColor=#000000;fillColor=#ffffc0;strokeColor=#ff0000;" vertex="1" parent="1">
          <mxGeometry x="490" y="-210" width="120" height="40" as="geometry" />
        </mxCell>
        <mxCell id="h3IPWH5JqxlF9HqRxVWm-42" value="" style="edgeStyle=orthogonalEdgeStyle;html=1;verticalAlign=bottom;endArrow=open;endSize=8;strokeColor=#ff0000;exitX=0.5;exitY=1;exitDx=0;exitDy=0;" edge="1" parent="1" source="h3IPWH5JqxlF9HqRxVWm-41">
          <mxGeometry relative="1" as="geometry">
            <mxPoint x="390" y="-130" as="targetPoint" />
            <Array as="points">
              <mxPoint x="550" y="-130" />
            </Array>
          </mxGeometry>
        </mxCell>
      </root>
    </mxGraphModel>
  </diagram>
</mxfile>
